<mxfile host="app.diagrams.net" modified="2023-12-05T13:59:45.647Z" agent="Mozilla/5.0 (X11; Linux x86_64) AppleWebKit/537.36 (KHTML, like Gecko) Chrome/119.0.0.0 Safari/537.36" etag="DcNTIVD0z7V5GcGAQwJW" version="22.1.5" type="github">
  <diagram name="0001" id="2BJK_bVkJtuhxQqg97SX">
    <mxGraphModel dx="956" dy="505" grid="1" gridSize="10" guides="1" tooltips="1" connect="1" arrows="1" fold="1" page="1" pageScale="1" pageWidth="1169" pageHeight="827" math="0" shadow="0">
      <root>
        <mxCell id="AIVapQDfSflTo-PrOUCk-0" />
        <mxCell id="AIVapQDfSflTo-PrOUCk-1" parent="AIVapQDfSflTo-PrOUCk-0" />
        <mxCell id="AIVapQDfSflTo-PrOUCk-2" value="&lt;b&gt;状态转换图示意&lt;/b&gt;" style="text;html=1;align=left;verticalAlign=middle;resizable=0;points=[];autosize=1;strokeColor=none;fillColor=none;fontSize=16;rounded=0;labelBackgroundColor=none;" parent="AIVapQDfSflTo-PrOUCk-1" vertex="1">
          <mxGeometry x="40.5" y="20" width="140" height="30" as="geometry" />
        </mxCell>
        <mxCell id="Gg1dTM-3lUcn298Vqbml-3" value="" style="rounded=0;orthogonalLoop=1;jettySize=auto;html=1;" edge="1" parent="AIVapQDfSflTo-PrOUCk-1" source="Gg1dTM-3lUcn298Vqbml-0" target="Gg1dTM-3lUcn298Vqbml-2">
          <mxGeometry relative="1" as="geometry" />
        </mxCell>
        <mxCell id="Gg1dTM-3lUcn298Vqbml-5" value="" style="rounded=0;orthogonalLoop=1;jettySize=auto;html=1;" edge="1" parent="AIVapQDfSflTo-PrOUCk-1" source="Gg1dTM-3lUcn298Vqbml-0" target="Gg1dTM-3lUcn298Vqbml-4">
          <mxGeometry relative="1" as="geometry" />
        </mxCell>
        <mxCell id="Gg1dTM-3lUcn298Vqbml-0" value="A" style="ellipse;whiteSpace=wrap;html=1;aspect=fixed;" vertex="1" parent="AIVapQDfSflTo-PrOUCk-1">
          <mxGeometry x="40.5" y="160" width="40" height="40" as="geometry" />
        </mxCell>
        <mxCell id="Gg1dTM-3lUcn298Vqbml-6" value="" style="rounded=0;orthogonalLoop=1;jettySize=auto;html=1;" edge="1" parent="AIVapQDfSflTo-PrOUCk-1" source="Gg1dTM-3lUcn298Vqbml-2" target="Gg1dTM-3lUcn298Vqbml-4">
          <mxGeometry relative="1" as="geometry" />
        </mxCell>
        <mxCell id="Gg1dTM-3lUcn298Vqbml-8" value="" style="rounded=0;orthogonalLoop=1;jettySize=auto;html=1;" edge="1" parent="AIVapQDfSflTo-PrOUCk-1" source="Gg1dTM-3lUcn298Vqbml-2" target="Gg1dTM-3lUcn298Vqbml-7">
          <mxGeometry relative="1" as="geometry" />
        </mxCell>
        <mxCell id="Gg1dTM-3lUcn298Vqbml-2" value="B" style="ellipse;whiteSpace=wrap;html=1;aspect=fixed;" vertex="1" parent="AIVapQDfSflTo-PrOUCk-1">
          <mxGeometry x="200.5" y="80" width="40" height="40" as="geometry" />
        </mxCell>
        <mxCell id="Gg1dTM-3lUcn298Vqbml-9" value="" style="rounded=0;orthogonalLoop=1;jettySize=auto;html=1;" edge="1" parent="AIVapQDfSflTo-PrOUCk-1" source="Gg1dTM-3lUcn298Vqbml-4" target="Gg1dTM-3lUcn298Vqbml-7">
          <mxGeometry relative="1" as="geometry" />
        </mxCell>
        <mxCell id="Gg1dTM-3lUcn298Vqbml-12" value="" style="rounded=0;orthogonalLoop=1;jettySize=auto;html=1;" edge="1" parent="AIVapQDfSflTo-PrOUCk-1" source="Gg1dTM-3lUcn298Vqbml-4" target="Gg1dTM-3lUcn298Vqbml-10">
          <mxGeometry relative="1" as="geometry" />
        </mxCell>
        <mxCell id="Gg1dTM-3lUcn298Vqbml-4" value="C" style="ellipse;whiteSpace=wrap;html=1;aspect=fixed;" vertex="1" parent="AIVapQDfSflTo-PrOUCk-1">
          <mxGeometry x="160.5" y="240" width="40" height="40" as="geometry" />
        </mxCell>
        <mxCell id="Gg1dTM-3lUcn298Vqbml-11" value="" style="rounded=0;orthogonalLoop=1;jettySize=auto;html=1;" edge="1" parent="AIVapQDfSflTo-PrOUCk-1" source="Gg1dTM-3lUcn298Vqbml-7" target="Gg1dTM-3lUcn298Vqbml-10">
          <mxGeometry relative="1" as="geometry" />
        </mxCell>
        <mxCell id="Gg1dTM-3lUcn298Vqbml-15" value="" style="rounded=0;orthogonalLoop=1;jettySize=auto;html=1;" edge="1" parent="AIVapQDfSflTo-PrOUCk-1" source="Gg1dTM-3lUcn298Vqbml-7" target="Gg1dTM-3lUcn298Vqbml-14">
          <mxGeometry relative="1" as="geometry" />
        </mxCell>
        <mxCell id="Gg1dTM-3lUcn298Vqbml-7" value="D" style="ellipse;whiteSpace=wrap;html=1;aspect=fixed;" vertex="1" parent="AIVapQDfSflTo-PrOUCk-1">
          <mxGeometry x="320.5" y="120" width="40" height="40" as="geometry" />
        </mxCell>
        <mxCell id="Gg1dTM-3lUcn298Vqbml-16" value="" style="rounded=0;orthogonalLoop=1;jettySize=auto;html=1;startArrow=classic;startFill=1;endArrow=none;endFill=0;" edge="1" parent="AIVapQDfSflTo-PrOUCk-1" source="Gg1dTM-3lUcn298Vqbml-10" target="Gg1dTM-3lUcn298Vqbml-14">
          <mxGeometry relative="1" as="geometry" />
        </mxCell>
        <mxCell id="Gg1dTM-3lUcn298Vqbml-10" value="D" style="ellipse;whiteSpace=wrap;html=1;aspect=fixed;" vertex="1" parent="AIVapQDfSflTo-PrOUCk-1">
          <mxGeometry x="360.5" y="240" width="40" height="40" as="geometry" />
        </mxCell>
        <mxCell id="Gg1dTM-3lUcn298Vqbml-18" value="" style="edgeStyle=orthogonalEdgeStyle;rounded=0;orthogonalLoop=1;jettySize=auto;html=1;entryX=1;entryY=0.5;entryDx=0;entryDy=0;curved=1;exitX=0.5;exitY=0;exitDx=0;exitDy=0;" edge="1" parent="AIVapQDfSflTo-PrOUCk-1" source="Gg1dTM-3lUcn298Vqbml-14" target="Gg1dTM-3lUcn298Vqbml-14">
          <mxGeometry relative="1" as="geometry">
            <Array as="points">
              <mxPoint x="500.5" y="100" />
              <mxPoint x="550.5" y="100" />
              <mxPoint x="550.5" y="140" />
            </Array>
          </mxGeometry>
        </mxCell>
        <mxCell id="Gg1dTM-3lUcn298Vqbml-14" value="F" style="ellipse;whiteSpace=wrap;html=1;aspect=fixed;" vertex="1" parent="AIVapQDfSflTo-PrOUCk-1">
          <mxGeometry x="480.5" y="120" width="40" height="40" as="geometry" />
        </mxCell>
        <mxCell id="Gg1dTM-3lUcn298Vqbml-19" value="0" style="text;html=1;align=center;verticalAlign=middle;resizable=0;points=[];autosize=1;strokeColor=none;fillColor=none;" vertex="1" parent="AIVapQDfSflTo-PrOUCk-1">
          <mxGeometry x="100.5" y="100" width="30" height="30" as="geometry" />
        </mxCell>
        <mxCell id="Gg1dTM-3lUcn298Vqbml-20" value="0" style="text;html=1;align=center;verticalAlign=middle;resizable=0;points=[];autosize=1;strokeColor=none;fillColor=none;" vertex="1" parent="AIVapQDfSflTo-PrOUCk-1">
          <mxGeometry x="270.5" y="85" width="30" height="30" as="geometry" />
        </mxCell>
        <mxCell id="Gg1dTM-3lUcn298Vqbml-21" value="0" style="text;html=1;align=center;verticalAlign=middle;resizable=0;points=[];autosize=1;strokeColor=none;fillColor=none;" vertex="1" parent="AIVapQDfSflTo-PrOUCk-1">
          <mxGeometry x="400.5" y="100" width="30" height="30" as="geometry" />
        </mxCell>
        <mxCell id="Gg1dTM-3lUcn298Vqbml-22" value="0" style="text;html=1;align=center;verticalAlign=middle;resizable=0;points=[];autosize=1;strokeColor=none;fillColor=none;" vertex="1" parent="AIVapQDfSflTo-PrOUCk-1">
          <mxGeometry x="120.5" y="190" width="30" height="30" as="geometry" />
        </mxCell>
        <mxCell id="Gg1dTM-3lUcn298Vqbml-23" value="1" style="text;html=1;align=center;verticalAlign=middle;resizable=0;points=[];autosize=1;strokeColor=none;fillColor=none;" vertex="1" parent="AIVapQDfSflTo-PrOUCk-1">
          <mxGeometry x="170.5" y="150" width="30" height="30" as="geometry" />
        </mxCell>
        <mxCell id="Gg1dTM-3lUcn298Vqbml-24" value="0" style="text;html=1;align=center;verticalAlign=middle;resizable=0;points=[];autosize=1;strokeColor=none;fillColor=none;" vertex="1" parent="AIVapQDfSflTo-PrOUCk-1">
          <mxGeometry x="240.5" y="165" width="30" height="30" as="geometry" />
        </mxCell>
        <mxCell id="Gg1dTM-3lUcn298Vqbml-25" value="1" style="text;html=1;align=center;verticalAlign=middle;resizable=0;points=[];autosize=1;strokeColor=none;fillColor=none;" vertex="1" parent="AIVapQDfSflTo-PrOUCk-1">
          <mxGeometry x="270.5" y="230" width="30" height="30" as="geometry" />
        </mxCell>
        <mxCell id="Gg1dTM-3lUcn298Vqbml-26" value="1" style="text;html=1;align=center;verticalAlign=middle;resizable=0;points=[];autosize=1;strokeColor=none;fillColor=none;" vertex="1" parent="AIVapQDfSflTo-PrOUCk-1">
          <mxGeometry x="360.5" y="170" width="30" height="30" as="geometry" />
        </mxCell>
        <mxCell id="Gg1dTM-3lUcn298Vqbml-27" value="0" style="text;html=1;align=center;verticalAlign=middle;resizable=0;points=[];autosize=1;strokeColor=none;fillColor=none;" vertex="1" parent="AIVapQDfSflTo-PrOUCk-1">
          <mxGeometry x="440.5" y="195" width="30" height="30" as="geometry" />
        </mxCell>
        <mxCell id="Gg1dTM-3lUcn298Vqbml-28" value="1" style="text;html=1;align=center;verticalAlign=middle;resizable=0;points=[];autosize=1;strokeColor=none;fillColor=none;" vertex="1" parent="AIVapQDfSflTo-PrOUCk-1">
          <mxGeometry x="540.5" y="80" width="30" height="30" as="geometry" />
        </mxCell>
      </root>
    </mxGraphModel>
  </diagram>
</mxfile>
